<?xml version="1.0" encoding="UTF-8" standalone="no"?>
<!DOCTYPE svg PUBLIC "-//W3C//DTD SVG 1.1//EN"
 "http://www.w3.org/Graphics/SVG/1.1/DTD/svg11.dtd">
<!-- Generated by graphviz version 2.40.1 (20161225.0304)
 -->
<!-- Title: dependencies Pages: 1 -->
<svg width="504pt" height="276pt"
 viewBox="0.00 0.00 504.00 276.00" xmlns="http://www.w3.org/2000/svg" xmlns:xlink="http://www.w3.org/1999/xlink">
<g id="graph0" class="graph" transform="scale(1 1) rotate(0) translate(4 272)">
<title>dependencies</title>
<polygon fill="#ffffff" stroke="transparent" points="-4,4 -4,-272 500,-272 500,4 -4,4"/>
<text text-anchor="start" x="227.0091" y="-42.4" font-family="sans-serif" font-weight="bold" font-size="14.00" fill="#000000">Legend</text>
<polygon fill="#ffffb3" stroke="transparent" points="14,-10 14,-30 34,-30 34,-10 14,-10"/>
<text text-anchor="start" x="37.629" y="-15.4" font-family="sans-serif" font-size="14.00" fill="#000000"> &#160;Declarations</text>
<polygon fill="#8dd3c7" stroke="transparent" points="127,-10 127,-30 147,-30 147,-10 127,-10"/>
<text text-anchor="start" x="150.7251" y="-15.4" font-family="sans-serif" font-size="14.00" fill="#000000"> &#160;Module</text>
<polygon fill="#80b1d3" stroke="transparent" points="213,-10 213,-30 233,-30 233,-10 213,-10"/>
<text text-anchor="start" x="236.7812" y="-15.4" font-family="sans-serif" font-size="14.00" fill="#000000"> &#160;Bootstrap</text>
<polygon fill="#fdb462" stroke="transparent" points="310,-10 310,-30 330,-30 330,-10 310,-10"/>
<text text-anchor="start" x="333.6732" y="-15.4" font-family="sans-serif" font-size="14.00" fill="#000000"> &#160;Providers</text>
<polygon fill="#fb8072" stroke="transparent" points="406,-10 406,-30 426,-30 426,-10 406,-10"/>
<text text-anchor="start" x="429.7258" y="-15.4" font-family="sans-serif" font-size="14.00" fill="#000000"> &#160;Exports</text>
<g id="clust1" class="cluster">
<title>cluster_DashboardModule</title>
<polygon fill="none" stroke="#000000" stroke-dasharray="1,5" points="105,-70 105,-260 391,-260 391,-70 105,-70"/>
</g>
<g id="clust2" class="cluster">
<title>cluster_DashboardModule_declarations</title>
<polygon fill="none" stroke="#000000" points="113,-143 113,-195 383,-195 383,-143 113,-143"/>
</g>
<g id="clust4" class="cluster">
<title>cluster_DashboardModule_DashboardComponent_providers</title>
<polygon fill="none" stroke="#000000" points="113,-78 113,-130 325,-130 325,-78 113,-78"/>
</g>
<!-- TitleCasePipe -->
<g id="node1" class="node">
<title>TitleCasePipe</title>
<polygon fill="#ffffb3" stroke="#000000" points="375.0383,-187 280.9617,-187 280.9617,-151 375.0383,-151 375.0383,-187"/>
<text text-anchor="middle" x="328" y="-164.8" font-family="Times,serif" font-size="14.00" fill="#000000">TitleCasePipe</text>
</g>
<!-- DashboardModule -->
<g id="node3" class="node">
<title>DashboardModule</title>
<polygon fill="#8dd3c7" stroke="#000000" points="317.191,-252 314.191,-256 293.191,-256 290.191,-252 196.809,-252 196.809,-216 317.191,-216 317.191,-252"/>
<text text-anchor="middle" x="257" y="-229.8" font-family="Times,serif" font-size="14.00" fill="#000000">DashboardModule</text>
</g>
<!-- TitleCasePipe&#45;&gt;DashboardModule -->
<g id="edge1" class="edge">
<title>TitleCasePipe&#45;&gt;DashboardModule</title>
<path fill="none" stroke="#000000" d="M298.9134,-187.1061C298.9134,-187.1061 298.9134,-205.991 298.9134,-205.991"/>
<polygon fill="#000000" stroke="#000000" points="295.4135,-205.9909 298.9134,-215.991 302.4135,-205.991 295.4135,-205.9909"/>
</g>
<!-- DashboardComponent -->
<g id="node2" class="node">
<title>DashboardComponent</title>
<polygon fill="#ffffb3" stroke="#000000" points="262.9734,-187 121.0266,-187 121.0266,-151 262.9734,-151 262.9734,-187"/>
<text text-anchor="middle" x="192" y="-164.8" font-family="Times,serif" font-size="14.00" fill="#000000">DashboardComponent</text>
</g>
<!-- DashboardComponent&#45;&gt;DashboardModule -->
<g id="edge2" class="edge">
<title>DashboardComponent&#45;&gt;DashboardModule</title>
<path fill="none" stroke="#000000" d="M229.9457,-187.1061C229.9457,-187.1061 229.9457,-205.991 229.9457,-205.991"/>
<polygon fill="#000000" stroke="#000000" points="226.4457,-205.9909 229.9457,-215.991 233.4457,-205.991 226.4457,-205.9909"/>
</g>
<!-- DashboardInfoService -->
<g id="node4" class="node">
<title>DashboardInfoService</title>
<ellipse fill="#fdb462" stroke="#000000" cx="219" cy="-104" rx="97.8151" ry="18"/>
<text text-anchor="middle" x="219" y="-99.8" font-family="Times,serif" font-size="14.00" fill="#000000">DashboardInfoService</text>
</g>
<!-- DashboardInfoService&#45;&gt;DashboardComponent -->
<g id="edge3" class="edge">
<title>DashboardInfoService&#45;&gt;DashboardComponent</title>
<path fill="none" stroke="#000000" d="M192.0396,-121.4188C192.0396,-121.4188 192.0396,-140.6234 192.0396,-140.6234"/>
<polygon fill="#000000" stroke="#000000" points="188.5397,-140.6234 192.0396,-150.6234 195.5397,-140.6234 188.5397,-140.6234"/>
</g>
</g>
</svg>
