<?xml version="1.0" encoding="UTF-8" standalone="no"?>
<!DOCTYPE svg PUBLIC "-//W3C//DTD SVG 1.1//EN"
 "http://www.w3.org/Graphics/SVG/1.1/DTD/svg11.dtd">
<!-- Generated by graphviz version 2.40.1 (20161225.0304)
 -->
<!-- Title: dependencies Pages: 1 -->
<svg width="504pt" height="276pt"
 viewBox="0.00 0.00 504.00 276.00" xmlns="http://www.w3.org/2000/svg" xmlns:xlink="http://www.w3.org/1999/xlink">
<g id="graph0" class="graph" transform="scale(1 1) rotate(0) translate(4 272)">
<title>dependencies</title>
<polygon fill="#ffffff" stroke="transparent" points="-4,4 -4,-272 500,-272 500,4 -4,4"/>
<text text-anchor="start" x="227.0091" y="-42.4" font-family="sans-serif" font-weight="bold" font-size="14.00" fill="#000000">Legend</text>
<polygon fill="#ffffb3" stroke="transparent" points="14,-10 14,-30 34,-30 34,-10 14,-10"/>
<text text-anchor="start" x="37.629" y="-15.4" font-family="sans-serif" font-size="14.00" fill="#000000"> &#160;Declarations</text>
<polygon fill="#8dd3c7" stroke="transparent" points="127,-10 127,-30 147,-30 147,-10 127,-10"/>
<text text-anchor="start" x="150.7251" y="-15.4" font-family="sans-serif" font-size="14.00" fill="#000000"> &#160;Module</text>
<polygon fill="#80b1d3" stroke="transparent" points="213,-10 213,-30 233,-30 233,-10 213,-10"/>
<text text-anchor="start" x="236.7812" y="-15.4" font-family="sans-serif" font-size="14.00" fill="#000000"> &#160;Bootstrap</text>
<polygon fill="#fdb462" stroke="transparent" points="310,-10 310,-30 330,-30 330,-10 310,-10"/>
<text text-anchor="start" x="333.6732" y="-15.4" font-family="sans-serif" font-size="14.00" fill="#000000"> &#160;Providers</text>
<polygon fill="#fb8072" stroke="transparent" points="406,-10 406,-30 426,-30 426,-10 406,-10"/>
<text text-anchor="start" x="429.7258" y="-15.4" font-family="sans-serif" font-size="14.00" fill="#000000"> &#160;Exports</text>
<g id="clust1" class="cluster">
<title>cluster_ArticlesModule</title>
<polygon fill="none" stroke="#000000" stroke-dasharray="1,5" points="149,-70 149,-260 347,-260 347,-70 149,-70"/>
</g>
<g id="clust2" class="cluster">
<title>cluster_ArticlesModule_declarations</title>
<polygon fill="none" stroke="#000000" points="167,-143 167,-195 309,-195 309,-143 167,-143"/>
</g>
<g id="clust3" class="cluster">
<title>cluster_ArticlesModule_ArticlesComponent_providers</title>
<polygon fill="none" stroke="#000000" points="157,-78 157,-130 339,-130 339,-78 157,-78"/>
</g>
<!-- ArticlesComponent -->
<g id="node1" class="node">
<title>ArticlesComponent</title>
<polygon fill="#ffffb3" stroke="#000000" points="300.6457,-187 175.3543,-187 175.3543,-151 300.6457,-151 300.6457,-187"/>
<text text-anchor="middle" x="238" y="-164.8" font-family="Times,serif" font-size="14.00" fill="#000000">ArticlesComponent</text>
</g>
<!-- ArticlesModule -->
<g id="node2" class="node">
<title>ArticlesModule</title>
<polygon fill="#8dd3c7" stroke="#000000" points="313.8627,-252 310.8627,-256 289.8627,-256 286.8627,-252 210.1373,-252 210.1373,-216 313.8627,-216 313.8627,-252"/>
<text text-anchor="middle" x="262" y="-229.8" font-family="Times,serif" font-size="14.00" fill="#000000">ArticlesModule</text>
</g>
<!-- ArticlesComponent&#45;&gt;ArticlesModule -->
<g id="edge1" class="edge">
<title>ArticlesComponent&#45;&gt;ArticlesModule</title>
<path fill="none" stroke="#000000" d="M255.4457,-187.1061C255.4457,-187.1061 255.4457,-205.991 255.4457,-205.991"/>
<polygon fill="#000000" stroke="#000000" points="251.9457,-205.9909 255.4457,-215.991 258.9457,-205.991 251.9457,-205.9909"/>
</g>
<!-- ArticleInfoService -->
<g id="node3" class="node">
<title>ArticleInfoService</title>
<ellipse fill="#fdb462" stroke="#000000" cx="248" cy="-104" rx="82.7782" ry="18"/>
<text text-anchor="middle" x="248" y="-99.8" font-family="Times,serif" font-size="14.00" fill="#000000">ArticleInfoService</text>
</g>
<!-- ArticleInfoService&#45;&gt;ArticlesComponent -->
<g id="edge2" class="edge">
<title>ArticleInfoService&#45;&gt;ArticlesComponent</title>
<path fill="none" stroke="#000000" d="M238,-122.1061C238,-122.1061 238,-140.991 238,-140.991"/>
<polygon fill="#000000" stroke="#000000" points="234.5001,-140.9909 238,-150.991 241.5001,-140.991 234.5001,-140.9909"/>
</g>
<!-- ArticleInfoService&#45;&gt;ArticlesModule -->
<g id="edge3" class="edge">
<title>ArticleInfoService&#45;&gt;ArticlesModule</title>
<path fill="none" stroke="#000000" d="M307.3769,-116.9402C307.3769,-116.9402 307.3769,-205.7315 307.3769,-205.7315"/>
<polygon fill="#000000" stroke="#000000" points="303.877,-205.7314 307.3769,-215.7315 310.877,-205.7315 303.877,-205.7314"/>
</g>
</g>
</svg>
