<?xml version="1.0" encoding="UTF-8" standalone="no"?>
<!DOCTYPE svg PUBLIC "-//W3C//DTD SVG 1.1//EN"
 "http://www.w3.org/Graphics/SVG/1.1/DTD/svg11.dtd">
<!-- Generated by graphviz version 2.40.1 (20161225.0304)
 -->
<!-- Title: dependencies Pages: 1 -->
<svg width="1034pt" height="284pt"
 viewBox="0.00 0.00 1034.00 284.00" xmlns="http://www.w3.org/2000/svg" xmlns:xlink="http://www.w3.org/1999/xlink">
<g id="graph0" class="graph" transform="scale(1 1) rotate(0) translate(4 280)">
<title>dependencies</title>
<polygon fill="#ffffff" stroke="transparent" points="-4,4 -4,-280 1030,-280 1030,4 -4,4"/>
<text text-anchor="start" x="492.0091" y="-42.4" font-family="sans-serif" font-weight="bold" font-size="14.00" fill="#000000">Legend</text>
<polygon fill="#ffffb3" stroke="transparent" points="279,-10 279,-30 299,-30 299,-10 279,-10"/>
<text text-anchor="start" x="302.629" y="-15.4" font-family="sans-serif" font-size="14.00" fill="#000000"> &#160;Declarations</text>
<polygon fill="#8dd3c7" stroke="transparent" points="392,-10 392,-30 412,-30 412,-10 392,-10"/>
<text text-anchor="start" x="415.7251" y="-15.4" font-family="sans-serif" font-size="14.00" fill="#000000"> &#160;Module</text>
<polygon fill="#80b1d3" stroke="transparent" points="478,-10 478,-30 498,-30 498,-10 478,-10"/>
<text text-anchor="start" x="501.7812" y="-15.4" font-family="sans-serif" font-size="14.00" fill="#000000"> &#160;Bootstrap</text>
<polygon fill="#fdb462" stroke="transparent" points="575,-10 575,-30 595,-30 595,-10 575,-10"/>
<text text-anchor="start" x="598.6732" y="-15.4" font-family="sans-serif" font-size="14.00" fill="#000000"> &#160;Providers</text>
<polygon fill="#fb8072" stroke="transparent" points="671,-10 671,-30 691,-30 691,-10 671,-10"/>
<text text-anchor="start" x="694.7258" y="-15.4" font-family="sans-serif" font-size="14.00" fill="#000000"> &#160;Exports</text>
<g id="clust1" class="cluster">
<title>cluster_AppModule</title>
<polygon fill="none" stroke="#000000" stroke-dasharray="1,5" points="8,-70 8,-268 1018,-268 1018,-70 8,-70"/>
</g>
<g id="clust2" class="cluster">
<title>cluster_AppModule_declarations</title>
<polygon fill="none" stroke="#000000" points="200,-78 200,-130 1010,-130 1010,-78 200,-78"/>
</g>
<g id="clust11" class="cluster">
<title>cluster_AppModule_bootstrap</title>
<polygon fill="none" stroke="#000000" points="455,-208 455,-260 579,-260 579,-208 455,-208"/>
</g>
<g id="clust12" class="cluster">
<title>cluster_AppModule_providers</title>
<polygon fill="none" stroke="#000000" points="16,-78 16,-130 192,-130 192,-78 16,-78"/>
</g>
<!-- AppComponent -->
<g id="node1" class="node">
<title>AppComponent</title>
<polygon fill="#ffffb3" stroke="#000000" points="1001.9399,-122 896.0601,-122 896.0601,-86 1001.9399,-86 1001.9399,-122"/>
<text text-anchor="middle" x="949" y="-99.8" font-family="Times,serif" font-size="14.00" fill="#000000">AppComponent</text>
</g>
<!-- AppModule -->
<g id="node7" class="node">
<title>AppModule</title>
<polygon fill="#8dd3c7" stroke="#000000" points="558.6571,-187 555.6571,-191 534.6571,-191 531.6571,-187 475.3429,-187 475.3429,-151 558.6571,-151 558.6571,-187"/>
<text text-anchor="middle" x="517" y="-164.8" font-family="Times,serif" font-size="14.00" fill="#000000">AppModule</text>
</g>
<!-- AppComponent&#45;&gt;AppModule -->
<g id="edge1" class="edge">
<title>AppComponent&#45;&gt;AppModule</title>
<path fill="none" stroke="#000000" d="M949,-122.2921C949,-144.2057 949,-178 949,-178 949,-178 568.8145,-178 568.8145,-178"/>
<polygon fill="#000000" stroke="#000000" points="568.8145,-174.5001 558.8145,-178 568.8145,-181.5001 568.8145,-174.5001"/>
</g>
<!-- DashboardComponent -->
<g id="node2" class="node">
<title>DashboardComponent</title>
<polygon fill="#ffffb3" stroke="#000000" points="877.9734,-122 736.0266,-122 736.0266,-86 877.9734,-86 877.9734,-122"/>
<text text-anchor="middle" x="807" y="-99.8" font-family="Times,serif" font-size="14.00" fill="#000000">DashboardComponent</text>
</g>
<!-- DashboardComponent&#45;&gt;AppModule -->
<g id="edge2" class="edge">
<title>DashboardComponent&#45;&gt;AppModule</title>
<path fill="none" stroke="#000000" d="M807,-122.1061C807,-141.3391 807,-169 807,-169 807,-169 568.8588,-169 568.8588,-169"/>
<polygon fill="#000000" stroke="#000000" points="568.8588,-165.5001 558.8588,-169 568.8587,-172.5001 568.8588,-165.5001"/>
</g>
<!-- ArticlesComponent -->
<g id="node3" class="node">
<title>ArticlesComponent</title>
<polygon fill="#ffffb3" stroke="#000000" points="717.6457,-122 592.3543,-122 592.3543,-86 717.6457,-86 717.6457,-122"/>
<text text-anchor="middle" x="655" y="-99.8" font-family="Times,serif" font-size="14.00" fill="#000000">ArticlesComponent</text>
</g>
<!-- ArticlesComponent&#45;&gt;AppModule -->
<g id="edge3" class="edge">
<title>ArticlesComponent&#45;&gt;AppModule</title>
<path fill="none" stroke="#000000" d="M655,-122.027C655,-138.3976 655,-160 655,-160 655,-160 568.779,-160 568.779,-160"/>
<polygon fill="#000000" stroke="#000000" points="568.7791,-156.5001 558.779,-160 568.779,-163.5001 568.7791,-156.5001"/>
</g>
<!-- LoginComponent -->
<g id="node4" class="node">
<title>LoginComponent</title>
<polygon fill="#ffffb3" stroke="#000000" points="574.2758,-122 459.7242,-122 459.7242,-86 574.2758,-86 574.2758,-122"/>
<text text-anchor="middle" x="517" y="-99.8" font-family="Times,serif" font-size="14.00" fill="#000000">LoginComponent</text>
</g>
<!-- LoginComponent&#45;&gt;AppModule -->
<g id="edge4" class="edge">
<title>LoginComponent&#45;&gt;AppModule</title>
<path fill="none" stroke="#000000" d="M517,-122.1061C517,-122.1061 517,-140.991 517,-140.991"/>
<polygon fill="#000000" stroke="#000000" points="513.5001,-140.9909 517,-150.991 520.5001,-140.991 513.5001,-140.9909"/>
</g>
<!-- HeaderComponent -->
<g id="node5" class="node">
<title>HeaderComponent</title>
<polygon fill="#ffffb3" stroke="#000000" points="441.7437,-122 320.2563,-122 320.2563,-86 441.7437,-86 441.7437,-122"/>
<text text-anchor="middle" x="381" y="-99.8" font-family="Times,serif" font-size="14.00" fill="#000000">HeaderComponent</text>
</g>
<!-- HeaderComponent&#45;&gt;AppModule -->
<g id="edge5" class="edge">
<title>HeaderComponent&#45;&gt;AppModule</title>
<path fill="none" stroke="#000000" d="M381,-122.027C381,-138.3976 381,-160 381,-160 381,-160 465.0858,-160 465.0858,-160"/>
<polygon fill="#000000" stroke="#000000" points="465.0858,-163.5001 475.0858,-160 465.0858,-156.5001 465.0858,-163.5001"/>
</g>
<!-- TitleCasePipe -->
<g id="node6" class="node">
<title>TitleCasePipe</title>
<polygon fill="#ffffb3" stroke="#000000" points="302.0383,-122 207.9617,-122 207.9617,-86 302.0383,-86 302.0383,-122"/>
<text text-anchor="middle" x="255" y="-99.8" font-family="Times,serif" font-size="14.00" fill="#000000">TitleCasePipe</text>
</g>
<!-- TitleCasePipe&#45;&gt;AppModule -->
<g id="edge6" class="edge">
<title>TitleCasePipe&#45;&gt;AppModule</title>
<path fill="none" stroke="#000000" d="M255,-122.1061C255,-141.3391 255,-169 255,-169 255,-169 465.1956,-169 465.1956,-169"/>
<polygon fill="#000000" stroke="#000000" points="465.1956,-172.5001 475.1956,-169 465.1956,-165.5001 465.1956,-172.5001"/>
</g>
<!-- AppComponent  -->
<g id="node8" class="node">
<title>AppComponent </title>
<polygon fill="#80b1d3" stroke="#000000" points="571.439,-252 462.561,-252 462.561,-216 571.439,-216 571.439,-252"/>
<text text-anchor="middle" x="517" y="-229.8" font-family="Times,serif" font-size="14.00" fill="#000000">AppComponent </text>
</g>
<!-- AppModule&#45;&gt;AppComponent  -->
<g id="edge7" class="edge">
<title>AppModule&#45;&gt;AppComponent </title>
<path fill="none" stroke="#000000" stroke-dasharray="1,5" d="M517,-187.1061C517,-187.1061 517,-205.991 517,-205.991"/>
<polygon fill="#000000" stroke="#000000" points="513.5001,-205.9909 517,-215.991 520.5001,-205.991 513.5001,-205.9909"/>
</g>
<!-- IsLoggedInGuard -->
<g id="node9" class="node">
<title>IsLoggedInGuard</title>
<ellipse fill="#fdb462" stroke="#000000" cx="104" cy="-104" rx="79.8604" ry="18"/>
<text text-anchor="middle" x="104" y="-99.8" font-family="Times,serif" font-size="14.00" fill="#000000">IsLoggedInGuard</text>
</g>
<!-- IsLoggedInGuard&#45;&gt;AppModule -->
<g id="edge8" class="edge">
<title>IsLoggedInGuard&#45;&gt;AppModule</title>
<path fill="none" stroke="#000000" d="M104,-122.2921C104,-144.2057 104,-178 104,-178 104,-178 465.1265,-178 465.1265,-178"/>
<polygon fill="#000000" stroke="#000000" points="465.1266,-181.5001 475.1265,-178 465.1265,-174.5001 465.1266,-181.5001"/>
</g>
</g>
</svg>
