<?xml version="1.0" encoding="UTF-8" standalone="no"?>
<!DOCTYPE svg PUBLIC "-//W3C//DTD SVG 1.1//EN"
 "http://www.w3.org/Graphics/SVG/1.1/DTD/svg11.dtd">
<!-- Generated by graphviz version 2.40.1 (20161225.0304)
 -->
<!-- Title: dependencies Pages: 1 -->
<svg width="1118pt" height="284pt"
 viewBox="0.00 0.00 1118.00 284.00" xmlns="http://www.w3.org/2000/svg" xmlns:xlink="http://www.w3.org/1999/xlink">
<g id="graph0" class="graph" transform="scale(1 1) rotate(0) translate(4 280)">
<title>dependencies</title>
<polygon fill="#ffffff" stroke="transparent" points="-4,4 -4,-280 1114,-280 1114,4 -4,4"/>
<text text-anchor="start" x="534.0091" y="-42.4" font-family="sans-serif" font-weight="bold" font-size="14.00" fill="#000000">Legend</text>
<polygon fill="#ffffb3" stroke="transparent" points="321,-10 321,-30 341,-30 341,-10 321,-10"/>
<text text-anchor="start" x="344.629" y="-15.4" font-family="sans-serif" font-size="14.00" fill="#000000"> &#160;Declarations</text>
<polygon fill="#8dd3c7" stroke="transparent" points="434,-10 434,-30 454,-30 454,-10 434,-10"/>
<text text-anchor="start" x="457.7251" y="-15.4" font-family="sans-serif" font-size="14.00" fill="#000000"> &#160;Module</text>
<polygon fill="#80b1d3" stroke="transparent" points="520,-10 520,-30 540,-30 540,-10 520,-10"/>
<text text-anchor="start" x="543.7812" y="-15.4" font-family="sans-serif" font-size="14.00" fill="#000000"> &#160;Bootstrap</text>
<polygon fill="#fdb462" stroke="transparent" points="617,-10 617,-30 637,-30 637,-10 617,-10"/>
<text text-anchor="start" x="640.6732" y="-15.4" font-family="sans-serif" font-size="14.00" fill="#000000"> &#160;Providers</text>
<polygon fill="#fb8072" stroke="transparent" points="713,-10 713,-30 733,-30 733,-10 713,-10"/>
<text text-anchor="start" x="736.7258" y="-15.4" font-family="sans-serif" font-size="14.00" fill="#000000"> &#160;Exports</text>
<g id="clust1" class="cluster">
<title>cluster_AppModule</title>
<polygon fill="none" stroke="#000000" stroke-dasharray="1,5" points="8,-70 8,-268 742,-268 742,-70 8,-70"/>
</g>
<g id="clust2" class="cluster">
<title>cluster_AppModule_declarations</title>
<polygon fill="none" stroke="#000000" points="200,-78 200,-130 734,-130 734,-78 200,-78"/>
</g>
<g id="clust9" class="cluster">
<title>cluster_AppModule_bootstrap</title>
<polygon fill="none" stroke="#000000" points="319,-208 319,-260 443,-260 443,-208 319,-208"/>
</g>
<g id="clust10" class="cluster">
<title>cluster_AppModule_providers</title>
<polygon fill="none" stroke="#000000" points="16,-78 16,-130 192,-130 192,-78 16,-78"/>
</g>
<g id="clust11" class="cluster">
<title>cluster_ArticlesModule</title>
<polygon fill="none" stroke="#000000" stroke-dasharray="1,5" points="750,-70 750,-260 948,-260 948,-70 750,-70"/>
</g>
<g id="clust12" class="cluster">
<title>cluster_ArticlesModule_declarations</title>
<polygon fill="none" stroke="#000000" points="768,-143 768,-195 910,-195 910,-143 768,-143"/>
</g>
<g id="clust13" class="cluster">
<title>cluster_ArticlesModule_ArticlesComponent_providers</title>
<polygon fill="none" stroke="#000000" points="758,-78 758,-130 940,-130 940,-78 758,-78"/>
</g>
<g id="clust18" class="cluster">
<title>cluster_LoginModule</title>
<polygon fill="none" stroke="#000000" stroke-dasharray="1,5" points="956,-70 956,-195 1102,-195 1102,-70 956,-70"/>
</g>
<g id="clust19" class="cluster">
<title>cluster_LoginModule_declarations</title>
<polygon fill="none" stroke="#000000" points="964,-78 964,-130 1094,-130 1094,-78 964,-78"/>
</g>
<!-- AppComponent -->
<g id="node1" class="node">
<title>AppComponent</title>
<polygon fill="#ffffb3" stroke="#000000" points="725.9399,-122 620.0601,-122 620.0601,-86 725.9399,-86 725.9399,-122"/>
<text text-anchor="middle" x="673" y="-99.8" font-family="Times,serif" font-size="14.00" fill="#000000">AppComponent</text>
</g>
<!-- AppModule -->
<g id="node5" class="node">
<title>AppModule</title>
<polygon fill="#8dd3c7" stroke="#000000" points="422.6571,-187 419.6571,-191 398.6571,-191 395.6571,-187 339.3429,-187 339.3429,-151 422.6571,-151 422.6571,-187"/>
<text text-anchor="middle" x="381" y="-164.8" font-family="Times,serif" font-size="14.00" fill="#000000">AppModule</text>
</g>
<!-- AppComponent&#45;&gt;AppModule -->
<g id="edge1" class="edge">
<title>AppComponent&#45;&gt;AppModule</title>
<path fill="none" stroke="#000000" d="M673,-122.2843C673,-143.3211 673,-175 673,-175 673,-175 432.8365,-175 432.8365,-175"/>
<polygon fill="#000000" stroke="#000000" points="432.8365,-171.5001 422.8365,-175 432.8364,-178.5001 432.8365,-171.5001"/>
</g>
<!-- DashboardComponent -->
<g id="node2" class="node">
<title>DashboardComponent</title>
<polygon fill="#ffffb3" stroke="#000000" points="601.9734,-122 460.0266,-122 460.0266,-86 601.9734,-86 601.9734,-122"/>
<text text-anchor="middle" x="531" y="-99.8" font-family="Times,serif" font-size="14.00" fill="#000000">DashboardComponent</text>
</g>
<!-- DashboardComponent&#45;&gt;AppModule -->
<g id="edge2" class="edge">
<title>DashboardComponent&#45;&gt;AppModule</title>
<path fill="none" stroke="#000000" d="M531,-122.0225C531,-139.3734 531,-163 531,-163 531,-163 432.7834,-163 432.7834,-163"/>
<polygon fill="#000000" stroke="#000000" points="432.7834,-159.5001 422.7834,-163 432.7833,-166.5001 432.7834,-159.5001"/>
</g>
<!-- HeaderComponent -->
<g id="node3" class="node">
<title>HeaderComponent</title>
<polygon fill="#ffffb3" stroke="#000000" points="441.7437,-122 320.2563,-122 320.2563,-86 441.7437,-86 441.7437,-122"/>
<text text-anchor="middle" x="381" y="-99.8" font-family="Times,serif" font-size="14.00" fill="#000000">HeaderComponent</text>
</g>
<!-- HeaderComponent&#45;&gt;AppModule -->
<g id="edge3" class="edge">
<title>HeaderComponent&#45;&gt;AppModule</title>
<path fill="none" stroke="#000000" d="M381,-122.1061C381,-122.1061 381,-140.991 381,-140.991"/>
<polygon fill="#000000" stroke="#000000" points="377.5001,-140.9909 381,-150.991 384.5001,-140.991 377.5001,-140.9909"/>
</g>
<!-- TitleCasePipe -->
<g id="node4" class="node">
<title>TitleCasePipe</title>
<polygon fill="#ffffb3" stroke="#000000" points="302.0383,-122 207.9617,-122 207.9617,-86 302.0383,-86 302.0383,-122"/>
<text text-anchor="middle" x="255" y="-99.8" font-family="Times,serif" font-size="14.00" fill="#000000">TitleCasePipe</text>
</g>
<!-- TitleCasePipe&#45;&gt;AppModule -->
<g id="edge4" class="edge">
<title>TitleCasePipe&#45;&gt;AppModule</title>
<path fill="none" stroke="#000000" d="M255,-122.0225C255,-139.3734 255,-163 255,-163 255,-163 329.0438,-163 329.0438,-163"/>
<polygon fill="#000000" stroke="#000000" points="329.0439,-166.5001 339.0438,-163 329.0438,-159.5001 329.0439,-166.5001"/>
</g>
<!-- AppComponent  -->
<g id="node6" class="node">
<title>AppComponent </title>
<polygon fill="#80b1d3" stroke="#000000" points="435.439,-252 326.561,-252 326.561,-216 435.439,-216 435.439,-252"/>
<text text-anchor="middle" x="381" y="-229.8" font-family="Times,serif" font-size="14.00" fill="#000000">AppComponent </text>
</g>
<!-- AppModule&#45;&gt;AppComponent  -->
<g id="edge5" class="edge">
<title>AppModule&#45;&gt;AppComponent </title>
<path fill="none" stroke="#000000" stroke-dasharray="1,5" d="M381,-187.1061C381,-187.1061 381,-205.991 381,-205.991"/>
<polygon fill="#000000" stroke="#000000" points="377.5001,-205.9909 381,-215.991 384.5001,-205.991 377.5001,-205.9909"/>
</g>
<!-- IsLoggedInGuard -->
<g id="node7" class="node">
<title>IsLoggedInGuard</title>
<ellipse fill="#fdb462" stroke="#000000" cx="104" cy="-104" rx="79.8604" ry="18"/>
<text text-anchor="middle" x="104" y="-99.8" font-family="Times,serif" font-size="14.00" fill="#000000">IsLoggedInGuard</text>
</g>
<!-- IsLoggedInGuard&#45;&gt;AppModule -->
<g id="edge6" class="edge">
<title>IsLoggedInGuard&#45;&gt;AppModule</title>
<path fill="none" stroke="#000000" d="M104,-122.2843C104,-143.3211 104,-175 104,-175 104,-175 329.2304,-175 329.2304,-175"/>
<polygon fill="#000000" stroke="#000000" points="329.2304,-178.5001 339.2304,-175 329.2304,-171.5001 329.2304,-178.5001"/>
</g>
<!-- ArticlesComponent -->
<g id="node8" class="node">
<title>ArticlesComponent</title>
<polygon fill="#ffffb3" stroke="#000000" points="901.6457,-187 776.3543,-187 776.3543,-151 901.6457,-151 901.6457,-187"/>
<text text-anchor="middle" x="839" y="-164.8" font-family="Times,serif" font-size="14.00" fill="#000000">ArticlesComponent</text>
</g>
<!-- ArticlesModule -->
<g id="node9" class="node">
<title>ArticlesModule</title>
<polygon fill="#8dd3c7" stroke="#000000" points="914.8627,-252 911.8627,-256 890.8627,-256 887.8627,-252 811.1373,-252 811.1373,-216 914.8627,-216 914.8627,-252"/>
<text text-anchor="middle" x="863" y="-229.8" font-family="Times,serif" font-size="14.00" fill="#000000">ArticlesModule</text>
</g>
<!-- ArticlesComponent&#45;&gt;ArticlesModule -->
<g id="edge7" class="edge">
<title>ArticlesComponent&#45;&gt;ArticlesModule</title>
<path fill="none" stroke="#000000" d="M856.4457,-187.1061C856.4457,-187.1061 856.4457,-205.991 856.4457,-205.991"/>
<polygon fill="#000000" stroke="#000000" points="852.9457,-205.9909 856.4457,-215.991 859.9457,-205.991 852.9457,-205.9909"/>
</g>
<!-- ArticleInfoService -->
<g id="node10" class="node">
<title>ArticleInfoService</title>
<ellipse fill="#fdb462" stroke="#000000" cx="849" cy="-104" rx="82.7782" ry="18"/>
<text text-anchor="middle" x="849" y="-99.8" font-family="Times,serif" font-size="14.00" fill="#000000">ArticleInfoService</text>
</g>
<!-- ArticleInfoService&#45;&gt;ArticlesComponent -->
<g id="edge8" class="edge">
<title>ArticleInfoService&#45;&gt;ArticlesComponent</title>
<path fill="none" stroke="#000000" d="M839,-122.1061C839,-122.1061 839,-140.991 839,-140.991"/>
<polygon fill="#000000" stroke="#000000" points="835.5001,-140.9909 839,-150.991 842.5001,-140.991 835.5001,-140.9909"/>
</g>
<!-- ArticleInfoService&#45;&gt;ArticlesModule -->
<g id="edge9" class="edge">
<title>ArticleInfoService&#45;&gt;ArticlesModule</title>
<path fill="none" stroke="#000000" d="M908.377,-116.9402C908.377,-116.9402 908.377,-205.7315 908.377,-205.7315"/>
<polygon fill="#000000" stroke="#000000" points="904.877,-205.7314 908.377,-215.7315 911.877,-205.7315 904.877,-205.7314"/>
</g>
<!-- LoginComponent -->
<g id="node11" class="node">
<title>LoginComponent</title>
<polygon fill="#ffffb3" stroke="#000000" points="1086.2758,-122 971.7242,-122 971.7242,-86 1086.2758,-86 1086.2758,-122"/>
<text text-anchor="middle" x="1029" y="-99.8" font-family="Times,serif" font-size="14.00" fill="#000000">LoginComponent</text>
</g>
<!-- LoginModule -->
<g id="node12" class="node">
<title>LoginModule</title>
<polygon fill="#8dd3c7" stroke="#000000" points="1075.493,-187 1072.493,-191 1051.493,-191 1048.493,-187 982.507,-187 982.507,-151 1075.493,-151 1075.493,-187"/>
<text text-anchor="middle" x="1029" y="-164.8" font-family="Times,serif" font-size="14.00" fill="#000000">LoginModule</text>
</g>
<!-- LoginComponent&#45;&gt;LoginModule -->
<g id="edge10" class="edge">
<title>LoginComponent&#45;&gt;LoginModule</title>
<path fill="none" stroke="#000000" d="M1029,-122.1061C1029,-122.1061 1029,-140.991 1029,-140.991"/>
<polygon fill="#000000" stroke="#000000" points="1025.5001,-140.9909 1029,-150.991 1032.5001,-140.991 1025.5001,-140.9909"/>
</g>
</g>
</svg>
