<?xml version="1.0" encoding="UTF-8" standalone="no"?>
<!DOCTYPE svg PUBLIC "-//W3C//DTD SVG 1.1//EN"
 "http://www.w3.org/Graphics/SVG/1.1/DTD/svg11.dtd">
<!-- Generated by graphviz version 2.40.1 (20161225.0304)
 -->
<!-- Title: dependencies Pages: 1 -->
<svg width="1140pt" height="284pt"
 viewBox="0.00 0.00 1140.00 284.00" xmlns="http://www.w3.org/2000/svg" xmlns:xlink="http://www.w3.org/1999/xlink">
<g id="graph0" class="graph" transform="scale(1 1) rotate(0) translate(4 280)">
<title>dependencies</title>
<polygon fill="#ffffff" stroke="transparent" points="-4,4 -4,-280 1136,-280 1136,4 -4,4"/>
<text text-anchor="start" x="545.0091" y="-42.4" font-family="sans-serif" font-weight="bold" font-size="14.00" fill="#000000">Legend</text>
<polygon fill="#ffffb3" stroke="transparent" points="332,-10 332,-30 352,-30 352,-10 332,-10"/>
<text text-anchor="start" x="355.629" y="-15.4" font-family="sans-serif" font-size="14.00" fill="#000000"> &#160;Declarations</text>
<polygon fill="#8dd3c7" stroke="transparent" points="445,-10 445,-30 465,-30 465,-10 445,-10"/>
<text text-anchor="start" x="468.7251" y="-15.4" font-family="sans-serif" font-size="14.00" fill="#000000"> &#160;Module</text>
<polygon fill="#80b1d3" stroke="transparent" points="531,-10 531,-30 551,-30 551,-10 531,-10"/>
<text text-anchor="start" x="554.7812" y="-15.4" font-family="sans-serif" font-size="14.00" fill="#000000"> &#160;Bootstrap</text>
<polygon fill="#fdb462" stroke="transparent" points="628,-10 628,-30 648,-30 648,-10 628,-10"/>
<text text-anchor="start" x="651.6732" y="-15.4" font-family="sans-serif" font-size="14.00" fill="#000000"> &#160;Providers</text>
<polygon fill="#fb8072" stroke="transparent" points="724,-10 724,-30 744,-30 744,-10 724,-10"/>
<text text-anchor="start" x="747.7258" y="-15.4" font-family="sans-serif" font-size="14.00" fill="#000000"> &#160;Exports</text>
<g id="clust1" class="cluster">
<title>cluster_AppModule</title>
<polygon fill="none" stroke="#000000" stroke-dasharray="1,5" points="8,-70 8,-268 470,-268 470,-70 8,-70"/>
</g>
<g id="clust2" class="cluster">
<title>cluster_AppModule_declarations</title>
<polygon fill="none" stroke="#000000" points="200,-78 200,-130 462,-130 462,-78 200,-78"/>
</g>
<g id="clust7" class="cluster">
<title>cluster_AppModule_bootstrap</title>
<polygon fill="none" stroke="#000000" points="207,-208 207,-260 331,-260 331,-208 207,-208"/>
</g>
<g id="clust8" class="cluster">
<title>cluster_AppModule_providers</title>
<polygon fill="none" stroke="#000000" points="16,-78 16,-130 192,-130 192,-78 16,-78"/>
</g>
<g id="clust9" class="cluster">
<title>cluster_ArticlesModule</title>
<polygon fill="none" stroke="#000000" stroke-dasharray="1,5" points="478,-70 478,-260 676,-260 676,-70 478,-70"/>
</g>
<g id="clust10" class="cluster">
<title>cluster_ArticlesModule_declarations</title>
<polygon fill="none" stroke="#000000" points="496,-143 496,-195 638,-195 638,-143 496,-143"/>
</g>
<g id="clust11" class="cluster">
<title>cluster_ArticlesModule_ArticlesComponent_providers</title>
<polygon fill="none" stroke="#000000" points="486,-78 486,-130 668,-130 668,-78 486,-78"/>
</g>
<g id="clust16" class="cluster">
<title>cluster_DashboardModule</title>
<polygon fill="none" stroke="#000000" stroke-dasharray="1,5" points="684,-70 684,-260 970,-260 970,-70 684,-70"/>
</g>
<g id="clust17" class="cluster">
<title>cluster_DashboardModule_declarations</title>
<polygon fill="none" stroke="#000000" points="692,-143 692,-195 962,-195 962,-143 692,-143"/>
</g>
<g id="clust19" class="cluster">
<title>cluster_DashboardModule_DashboardComponent_providers</title>
<polygon fill="none" stroke="#000000" points="692,-78 692,-130 904,-130 904,-78 692,-78"/>
</g>
<g id="clust24" class="cluster">
<title>cluster_LoginModule</title>
<polygon fill="none" stroke="#000000" stroke-dasharray="1,5" points="978,-70 978,-195 1124,-195 1124,-70 978,-70"/>
</g>
<g id="clust25" class="cluster">
<title>cluster_LoginModule_declarations</title>
<polygon fill="none" stroke="#000000" points="986,-78 986,-130 1116,-130 1116,-78 986,-78"/>
</g>
<!-- AppComponent -->
<g id="node1" class="node">
<title>AppComponent</title>
<polygon fill="#ffffb3" stroke="#000000" points="453.9399,-122 348.0601,-122 348.0601,-86 453.9399,-86 453.9399,-122"/>
<text text-anchor="middle" x="401" y="-99.8" font-family="Times,serif" font-size="14.00" fill="#000000">AppComponent</text>
</g>
<!-- AppModule -->
<g id="node3" class="node">
<title>AppModule</title>
<polygon fill="#8dd3c7" stroke="#000000" points="310.6571,-187 307.6571,-191 286.6571,-191 283.6571,-187 227.3429,-187 227.3429,-151 310.6571,-151 310.6571,-187"/>
<text text-anchor="middle" x="269" y="-164.8" font-family="Times,serif" font-size="14.00" fill="#000000">AppModule</text>
</g>
<!-- AppComponent&#45;&gt;AppModule -->
<g id="edge1" class="edge">
<title>AppComponent&#45;&gt;AppModule</title>
<path fill="none" stroke="#000000" d="M401,-122.1061C401,-141.3391 401,-169 401,-169 401,-169 320.7656,-169 320.7656,-169"/>
<polygon fill="#000000" stroke="#000000" points="320.7657,-165.5001 310.7656,-169 320.7656,-172.5001 320.7657,-165.5001"/>
</g>
<!-- HeaderComponent -->
<g id="node2" class="node">
<title>HeaderComponent</title>
<polygon fill="#ffffb3" stroke="#000000" points="329.7437,-122 208.2563,-122 208.2563,-86 329.7437,-86 329.7437,-122"/>
<text text-anchor="middle" x="269" y="-99.8" font-family="Times,serif" font-size="14.00" fill="#000000">HeaderComponent</text>
</g>
<!-- HeaderComponent&#45;&gt;AppModule -->
<g id="edge2" class="edge">
<title>HeaderComponent&#45;&gt;AppModule</title>
<path fill="none" stroke="#000000" d="M269,-122.1061C269,-122.1061 269,-140.991 269,-140.991"/>
<polygon fill="#000000" stroke="#000000" points="265.5001,-140.9909 269,-150.991 272.5001,-140.991 265.5001,-140.9909"/>
</g>
<!-- AppComponent  -->
<g id="node4" class="node">
<title>AppComponent </title>
<polygon fill="#80b1d3" stroke="#000000" points="323.439,-252 214.561,-252 214.561,-216 323.439,-216 323.439,-252"/>
<text text-anchor="middle" x="269" y="-229.8" font-family="Times,serif" font-size="14.00" fill="#000000">AppComponent </text>
</g>
<!-- AppModule&#45;&gt;AppComponent  -->
<g id="edge3" class="edge">
<title>AppModule&#45;&gt;AppComponent </title>
<path fill="none" stroke="#000000" stroke-dasharray="1,5" d="M269,-187.1061C269,-187.1061 269,-205.991 269,-205.991"/>
<polygon fill="#000000" stroke="#000000" points="265.5001,-205.9909 269,-215.991 272.5001,-205.991 265.5001,-205.9909"/>
</g>
<!-- IsLoggedInGuard -->
<g id="node5" class="node">
<title>IsLoggedInGuard</title>
<ellipse fill="#fdb462" stroke="#000000" cx="104" cy="-104" rx="79.8604" ry="18"/>
<text text-anchor="middle" x="104" y="-99.8" font-family="Times,serif" font-size="14.00" fill="#000000">IsLoggedInGuard</text>
</g>
<!-- IsLoggedInGuard&#45;&gt;AppModule -->
<g id="edge4" class="edge">
<title>IsLoggedInGuard&#45;&gt;AppModule</title>
<path fill="none" stroke="#000000" d="M104,-122.1061C104,-141.3391 104,-169 104,-169 104,-169 216.9366,-169 216.9366,-169"/>
<polygon fill="#000000" stroke="#000000" points="216.9366,-172.5001 226.9366,-169 216.9366,-165.5001 216.9366,-172.5001"/>
</g>
<!-- ArticlesComponent -->
<g id="node6" class="node">
<title>ArticlesComponent</title>
<polygon fill="#ffffb3" stroke="#000000" points="629.6457,-187 504.3543,-187 504.3543,-151 629.6457,-151 629.6457,-187"/>
<text text-anchor="middle" x="567" y="-164.8" font-family="Times,serif" font-size="14.00" fill="#000000">ArticlesComponent</text>
</g>
<!-- ArticlesModule -->
<g id="node7" class="node">
<title>ArticlesModule</title>
<polygon fill="#8dd3c7" stroke="#000000" points="642.8627,-252 639.8627,-256 618.8627,-256 615.8627,-252 539.1373,-252 539.1373,-216 642.8627,-216 642.8627,-252"/>
<text text-anchor="middle" x="591" y="-229.8" font-family="Times,serif" font-size="14.00" fill="#000000">ArticlesModule</text>
</g>
<!-- ArticlesComponent&#45;&gt;ArticlesModule -->
<g id="edge5" class="edge">
<title>ArticlesComponent&#45;&gt;ArticlesModule</title>
<path fill="none" stroke="#000000" d="M584.4457,-187.1061C584.4457,-187.1061 584.4457,-205.991 584.4457,-205.991"/>
<polygon fill="#000000" stroke="#000000" points="580.9457,-205.9909 584.4457,-215.991 587.9457,-205.991 580.9457,-205.9909"/>
</g>
<!-- ArticleInfoService -->
<g id="node8" class="node">
<title>ArticleInfoService</title>
<ellipse fill="#fdb462" stroke="#000000" cx="577" cy="-104" rx="82.7782" ry="18"/>
<text text-anchor="middle" x="577" y="-99.8" font-family="Times,serif" font-size="14.00" fill="#000000">ArticleInfoService</text>
</g>
<!-- ArticleInfoService&#45;&gt;ArticlesComponent -->
<g id="edge6" class="edge">
<title>ArticleInfoService&#45;&gt;ArticlesComponent</title>
<path fill="none" stroke="#000000" d="M567,-122.1061C567,-122.1061 567,-140.991 567,-140.991"/>
<polygon fill="#000000" stroke="#000000" points="563.5001,-140.9909 567,-150.991 570.5001,-140.991 563.5001,-140.9909"/>
</g>
<!-- ArticleInfoService&#45;&gt;ArticlesModule -->
<g id="edge7" class="edge">
<title>ArticleInfoService&#45;&gt;ArticlesModule</title>
<path fill="none" stroke="#000000" d="M636.377,-116.9402C636.377,-116.9402 636.377,-205.7315 636.377,-205.7315"/>
<polygon fill="#000000" stroke="#000000" points="632.877,-205.7314 636.377,-215.7315 639.877,-205.7315 632.877,-205.7314"/>
</g>
<!-- TitleCasePipe -->
<g id="node9" class="node">
<title>TitleCasePipe</title>
<polygon fill="#ffffb3" stroke="#000000" points="954.0383,-187 859.9617,-187 859.9617,-151 954.0383,-151 954.0383,-187"/>
<text text-anchor="middle" x="907" y="-164.8" font-family="Times,serif" font-size="14.00" fill="#000000">TitleCasePipe</text>
</g>
<!-- DashboardModule -->
<g id="node11" class="node">
<title>DashboardModule</title>
<polygon fill="#8dd3c7" stroke="#000000" points="896.191,-252 893.191,-256 872.191,-256 869.191,-252 775.809,-252 775.809,-216 896.191,-216 896.191,-252"/>
<text text-anchor="middle" x="836" y="-229.8" font-family="Times,serif" font-size="14.00" fill="#000000">DashboardModule</text>
</g>
<!-- TitleCasePipe&#45;&gt;DashboardModule -->
<g id="edge8" class="edge">
<title>TitleCasePipe&#45;&gt;DashboardModule</title>
<path fill="none" stroke="#000000" d="M877.9134,-187.1061C877.9134,-187.1061 877.9134,-205.991 877.9134,-205.991"/>
<polygon fill="#000000" stroke="#000000" points="874.4135,-205.9909 877.9134,-215.991 881.4135,-205.991 874.4135,-205.9909"/>
</g>
<!-- DashboardComponent -->
<g id="node10" class="node">
<title>DashboardComponent</title>
<polygon fill="#ffffb3" stroke="#000000" points="841.9734,-187 700.0266,-187 700.0266,-151 841.9734,-151 841.9734,-187"/>
<text text-anchor="middle" x="771" y="-164.8" font-family="Times,serif" font-size="14.00" fill="#000000">DashboardComponent</text>
</g>
<!-- DashboardComponent&#45;&gt;DashboardModule -->
<g id="edge9" class="edge">
<title>DashboardComponent&#45;&gt;DashboardModule</title>
<path fill="none" stroke="#000000" d="M808.9457,-187.1061C808.9457,-187.1061 808.9457,-205.991 808.9457,-205.991"/>
<polygon fill="#000000" stroke="#000000" points="805.4457,-205.9909 808.9457,-215.991 812.4457,-205.991 805.4457,-205.9909"/>
</g>
<!-- DashboardInfoService -->
<g id="node12" class="node">
<title>DashboardInfoService</title>
<ellipse fill="#fdb462" stroke="#000000" cx="798" cy="-104" rx="97.8151" ry="18"/>
<text text-anchor="middle" x="798" y="-99.8" font-family="Times,serif" font-size="14.00" fill="#000000">DashboardInfoService</text>
</g>
<!-- DashboardInfoService&#45;&gt;DashboardComponent -->
<g id="edge10" class="edge">
<title>DashboardInfoService&#45;&gt;DashboardComponent</title>
<path fill="none" stroke="#000000" d="M771.0396,-121.4188C771.0396,-121.4188 771.0396,-140.6234 771.0396,-140.6234"/>
<polygon fill="#000000" stroke="#000000" points="767.5397,-140.6234 771.0396,-150.6234 774.5397,-140.6234 767.5397,-140.6234"/>
</g>
<!-- LoginComponent -->
<g id="node13" class="node">
<title>LoginComponent</title>
<polygon fill="#ffffb3" stroke="#000000" points="1108.2758,-122 993.7242,-122 993.7242,-86 1108.2758,-86 1108.2758,-122"/>
<text text-anchor="middle" x="1051" y="-99.8" font-family="Times,serif" font-size="14.00" fill="#000000">LoginComponent</text>
</g>
<!-- LoginModule -->
<g id="node14" class="node">
<title>LoginModule</title>
<polygon fill="#8dd3c7" stroke="#000000" points="1097.493,-187 1094.493,-191 1073.493,-191 1070.493,-187 1004.507,-187 1004.507,-151 1097.493,-151 1097.493,-187"/>
<text text-anchor="middle" x="1051" y="-164.8" font-family="Times,serif" font-size="14.00" fill="#000000">LoginModule</text>
</g>
<!-- LoginComponent&#45;&gt;LoginModule -->
<g id="edge11" class="edge">
<title>LoginComponent&#45;&gt;LoginModule</title>
<path fill="none" stroke="#000000" d="M1051,-122.1061C1051,-122.1061 1051,-140.991 1051,-140.991"/>
<polygon fill="#000000" stroke="#000000" points="1047.5001,-140.9909 1051,-150.991 1054.5001,-140.991 1047.5001,-140.9909"/>
</g>
</g>
</svg>
